<svg xmlns="http://www.w3.org/2000/svg" width="45" height="44.817" viewBox="0 0 45 44.817">
  <g id="iconfinder_wedding_hand_drawn_icon_-08_3250815" transform="translate(0.001 0.001)">
    <g id="Group_8" data-name="Group 8" transform="translate(-0.001 -0.001)">
      <g id="Group_7" data-name="Group 7">
        <path id="Path_3" data-name="Path 3" d="M19.784,35.9a1.653,1.653,0,0,1-1.2-.42,2.522,2.522,0,0,1-.353-2.157c-.386-.054-.776-.1-1.166-.148a20.992,20.992,0,0,1-3.3-.576C7.752,30.873,3.6,26.607,1.08,19.558-.934,13.927-.122,9.064,3.424,5.493,8.386.5,13.327-1.068,18.53.7c2.808.954,6.384,2.613,7.483,5.1,3.637,8.218,4.369,18.863-3.867,25.047l1.378,1.362a1.558,1.558,0,0,1-.541,2.662L21,35.66A3.375,3.375,0,0,1,19.784,35.9Zm.942-4.087-.151.093c-.246.148-.458,1.008-.6,1.577a2.9,2.9,0,0,0-.094.679,1.709,1.709,0,0,0,.476-.117l1.82-.722L20.9,32.052A.881.881,0,0,1,20.727,31.815ZM14.507,1.751c-3.3,0-6.551,1.643-9.852,4.965C1.568,9.822.916,13.946,2.715,18.973c2.321,6.486,6.093,10.4,11.534,11.961a19.518,19.518,0,0,0,3.025.522c.485.058.968.116,1.448.188a2.442,2.442,0,0,1,.957-1.221c8.921-5.382,8.3-15.884,4.748-23.918-.651-1.47-3-2.986-6.455-4.159A10.691,10.691,0,0,0,14.507,1.751Z" transform="translate(0.001 0.001)" fill="#ff847c"/>
      </g>
    </g>
    <g id="Group_10" data-name="Group 10" transform="translate(24.929 4.088)">
      <g id="Group_9" data-name="Group 9">
        <path id="Path_4" data-name="Path 4" d="M26.356,34.255a.867.867,0,0,1-.05-1.732c4.1-.242,6.774-1.457,8.665-3.942,2.865-3.765,5.433-7.987,4.832-13.327a4.5,4.5,0,0,1,.017-.924,1.97,1.97,0,0,0,0-.626c-1.289-3.209-5.411-6.511-9.8-7.852-2.921-.89-5.446-.76-7.114.37a.868.868,0,1,1-.974-1.436c2.11-1.432,5.162-1.641,8.6-.594,4.925,1.5,9.408,5.149,10.9,8.864a2.988,2.988,0,0,1,.114,1.43,3.135,3.135,0,0,0-.022.571c.668,5.95-2.092,10.519-5.176,14.573-2.883,3.788-7.056,4.453-9.944,4.623Z" transform="translate(-21.558 -3.535)" fill="#9d79d5"/>
      </g>
    </g>
    <g id="Group_12" data-name="Group 12" transform="translate(31.362 7.335)">
      <g id="Group_11" data-name="Group 11">
        <path id="Path_5" data-name="Path 5" d="M36.211,20.947H36.2a.868.868,0,0,1-.859-.875c.053-5.874-2.464-9.821-7.7-12.064a.867.867,0,0,1,.683-1.595c5.864,2.514,8.807,7.115,8.747,13.674A.865.865,0,0,1,36.211,20.947Z" transform="translate(-27.121 -6.343)" fill="#9d79d5"/>
      </g>
    </g>
    <g id="Group_14" data-name="Group 14" transform="translate(11.345 3.636)">
      <g id="Group_13" data-name="Group 13">
        <path id="Path_6" data-name="Path 6" d="M21.761,14.172a.868.868,0,0,1-.867-.867c0-.178.017-.365.036-.553a2.2,2.2,0,0,0,.017-.508c-1.878-4.037-5.287-6.454-10.421-7.38a.867.867,0,1,1,.306-1.707c5.73,1.034,9.554,3.77,11.689,8.364a2.615,2.615,0,0,1,.133,1.4c-.013.128-.027.258-.027.38A.866.866,0,0,1,21.761,14.172Z" transform="translate(-9.811 -3.144)" fill="#ff847c"/>
      </g>
    </g>
    <g id="Group_16" data-name="Group 16" transform="translate(20.265 34.5)">
      <g id="Group_15" data-name="Group 15">
        <path id="Path_7" data-name="Path 7" d="M18.409,39.793a.868.868,0,0,1-.867-.867c0-.43,0-.861-.008-1.292-.01-1.012-.02-2.024.023-3.033.039-.941.135-1.883.229-2.793.04-.394.081-.79.118-1.184a.855.855,0,0,1,.942-.785.869.869,0,0,1,.785.942q-.056.6-.12,1.2c-.09.885-.185,1.8-.222,2.687-.039.978-.03,1.961-.021,2.943,0,.436.008.873.008,1.309A.868.868,0,0,1,18.409,39.793Z" transform="translate(-17.524 -29.834)" fill="#ff847c"/>
      </g>
    </g>
    <g id="Group_18" data-name="Group 18" transform="translate(24.563 37.36)">
      <g id="Group_17" data-name="Group 17">
        <path id="Path_8" data-name="Path 8" d="M22.119,39.764h-.044a.867.867,0,0,1-.823-.909c.012-.238,0-.481,0-.723-.029-1.148-.072-2.712,1.784-3.618a5.28,5.28,0,0,0,.193-.754,7.931,7.931,0,0,1,.213-.857.868.868,0,0,1,1.647.549,6.324,6.324,0,0,0-.162.663c-.156.747-.332,1.592-1.05,1.921-.9.407-.92.894-.89,2.053.007.286.014.571,0,.852A.867.867,0,0,1,22.119,39.764Z" transform="translate(-21.241 -32.308)" fill="#9d79d5"/>
      </g>
    </g>
    <g id="Group_20" data-name="Group 20" transform="translate(22.427 29.141)">
      <g id="Group_19" data-name="Group 19">
        <path id="Path_9" data-name="Path 9" d="M25.6,34.888a4.27,4.27,0,0,1-2.47-.849,2.356,2.356,0,0,1-.649-2.883l.887-1.809-.184-.095a9.452,9.452,0,0,1-3.631-2.679.868.868,0,1,1,1.41-1.012,8.057,8.057,0,0,0,3.012,2.147c1.7.873,3.629,1.863,4.366,4.134a2.332,2.332,0,0,1-1.292,2.764A4,4,0,0,1,25.6,34.888ZM24.888,30.2l-.843,1.722a.667.667,0,0,0,.086.7,2.3,2.3,0,0,0,2.3.37.642.642,0,0,0,.267-.608A4.1,4.1,0,0,0,24.888,30.2Z" transform="translate(-19.395 -25.201)" fill="#9d79d5"/>
      </g>
    </g>
  </g>
</svg>
