<svg xmlns="http://www.w3.org/2000/svg" width="40" height="48.301" viewBox="0 0 40 48.301">
  <path id="iconfinder_champagne_glasses_1_811448" d="M34.624,25.082a.677.677,0,0,0-1.1.5c.033.332.1.53.687.663S35.176,25.414,34.624,25.082Zm2.625-1.006a.43.43,0,0,0-.7.315c.021.211.063.337.435.421s.615-.526.264-.737ZM34.73,21.309a.579.579,0,0,0-.943.425c.029.282.086.453.586.566s.829-.709.357-.992Zm-2.667-1.4a.677.677,0,0,0-1.1.5c.033.332.1.53.687.663S32.616,20.239,32.063,19.907Zm3.33-2.687a.677.677,0,0,0-1.1.5c.033.332.1.53.687.663S35.945,17.552,35.393,17.22Zm-3.727.552a.5.5,0,0,0-.808.364c.023.243.072.389.5.485S32.071,18.016,31.666,17.773ZM18.576,21.678c.747.169,1.239-1.059.534-1.482a.866.866,0,0,0-1.41.636c.043.423.128.678.875.847Zm1.1,3.27a.809.809,0,0,0-1.319.595c.04.4.121.634.82.792s1.161-.99.5-1.387Zm2.257-3.6a.479.479,0,0,0-.781.352c.023.234.07.376.485.469s.687-.586.3-.821Zm-5.383,4.225a.6.6,0,0,0-.97.436c.03.291.088.466.6.583S17.036,25.867,16.551,25.576Zm1.4,3.479a.513.513,0,0,0-.835.377c.026.249.075.4.519.5s.734-.628.317-.878ZM25.524,3.1c1.389.315,2.3-1.967.992-2.753A1.607,1.607,0,0,0,23.9,1.524c.078.787.237,1.259,1.626,1.574Zm.43-2.113c.543.327.165,1.275-.414,1.145s-.644-.327-.676-.654A.668.668,0,0,1,25.953.985ZM45.885,37.04c-.6-.83-4.668.78-4.8.8s-2.594-7.811-2.611-8.011a17.2,17.2,0,0,0,1.223-2.106,9.623,9.623,0,0,0,.418-5.358c-.5-1.691-5.2-13.649-5.588-14.015s-2.862.017-4.635.614-4.9,1.642-4.921,2.057,1.323,4.211,1.323,4.211a20.063,20.063,0,0,0-3.532-1.774c-1.823-.664-4.788-1.331-5.036-1.128-1.054.863-5.656,14.6-5.673,15.773s1.874,4.81,1.841,4.992S9.725,44.6,9.725,44.6s-3.447-.845-3.7-.166,1.355,2.57,3.648,3.217,5.539.9,5.723.332S12.9,45.731,12.721,45.5a97.9,97.9,0,0,1,4.451-11.411c.352-.2,3.666-1.626,4.068-2.007s1.238-1.16,2.426-4.179,3.063-10.781,3.063-10.781,2.878,9.338,4.151,11.261,4.417,2.206,4.468,2.239,3.162,8.143,3.162,8.143c-2.259,1.128-3.781,3-3.347,3.6s2.678.364,6.075-1,5.254-3.5,4.652-4.33Zm-24.58-7.381c-.9,1.675-4.066,2.77-4.6,3.251s-4.936,12.007-5,12.6,1.74,1.543,1.74,1.774-2.377-.032-3.364-.463A8.078,8.078,0,0,1,7.7,45.083c.033-.1,2.293.513,2.426.415s4.9-13.119,4.921-13.2-1.239-3.6-1.323-4.445,2.81-9.388,3.6-10.78a4.853,4.853,0,0,1,2.208-.217,12.516,12.516,0,0,0,1.992.581c.585.032,1.974-.283,2.208-.217A8.465,8.465,0,0,1,25.1,17.7c-.015.068-2.893,10.285-3.8,11.96Zm3.949-12.82s-.183-.928-1.774-.614-1.54.43-2.158.332-1.455-.481-1.807-.513-1.924.232-1.924.181.87-2.951.954-3.019a16.462,16.462,0,0,1,3.966,1.079,11,11,0,0,1,3.079,1.641,6.847,6.847,0,0,1-.335.912Zm1.356-5.506a27.233,27.233,0,0,1,3.464-1.36,15.491,15.491,0,0,1,3.547-.78,37.538,37.538,0,0,1,1.323,3.947c-.051.183-2.176-.149-2.694,0a11.734,11.734,0,0,1-2.025.63c-.468,0-1-.266-1.355-.232a7.416,7.416,0,0,0-1.254.4,12.339,12.339,0,0,1-1-2.6Zm9.371,18.675c-1.054-1.294-2.46-1.377-3.162-2.04s-2.377-5.192-3.615-8.543-1.64-4.892-1.238-4.776a2.491,2.491,0,0,1,1.2-.2c.653.066,1.038.3,1.489.149a5.939,5.939,0,0,1,1.489-.531c.5-.017,1.774.216,2.241.2a2.653,2.653,0,0,0,.971-.282s3.263,8.143,3.364,8.856a13.451,13.451,0,0,1-.653,4.743,4.363,4.363,0,0,0-.586,2.106c.049.183,2.878,9.056,2.945,9.189s.217.463.151.6-.687.216-.687.216-2.86-8.392-3.915-9.686Zm4.77,10.581c-2.175.913-4.317,1.444-4.484,1.228s1.774-2.207,2.527-2.373c.073-.015.4.928.518.979a5.807,5.807,0,0,0,1.573-.481c.469-.216.72-.43.637-.547s-.251-.463-.2-.563,3.18-1.659,3.6-1.161-1.992,2.006-4.166,2.918ZM20.887,5.919c1.389.314,2.3-1.967.992-2.755a1.608,1.608,0,0,0-2.619,1.18c.079.787.238,1.259,1.627,1.574Zm.43-2.113c.543.326.165,1.275-.414,1.144s-.644-.327-.676-.654a.668.668,0,0,1,1.089-.491Zm2.732,3.162c.073.721.219,1.152,1.49,1.441s2.106-1.8.908-2.521a1.471,1.471,0,0,0-2.4,1.079Zm1.5.554c-.528-.121-.589-.3-.619-.6a.611.611,0,0,1,1-.449c.5.3.151,1.168-.377,1.048Z" transform="translate(-6.001 0)" fill="#8ea452"/>
</svg>
