<svg xmlns="http://www.w3.org/2000/svg" width="38" height="45.884" viewBox="0 0 38 45.884">
  <path id="iconfinder_dancer_1_811487" d="M14.159,28.779a1.751,1.751,0,0,0-.036-1.552c-.108-.434-3.2-5.128-3.305-5.236S5.792,23.76,6.007,24.41,8.7,29.538,8.88,29.754c.115.138-2.047.217-2.3,1.445s1.149,1.192,1.724,1.3,2.585-1.481,2.119-2.419-2.154-4.117-2.046-4.442,1.939-2.022,2.19-1.59,2.263,2.816,2.084,3.033-1.293,1.048-.933,1.878,2.082.577,2.441-.181Zm.466-22.027c1.113-.289,2.55-1.445,2.478-2.094A27.968,27.968,0,0,0,14.8,0c-.108,0-.9.361-.86.614s1.184,2.672,1.292,2.925c0,0-2.585.722-2.514,1.843A1.375,1.375,0,0,0,14.625,6.752ZM26.907,17.658s-.217-.47.143-.614,3.123-1.589,3.662-3.25.79-8.45-5.351-7.944-5.961,5.6-4.956,8.087a5.661,5.661,0,0,0,3.735,3.106c.179.108.108.759.072.939s-.386.265-.611.179c-.287-.108-11.347-7.077-11.814-7.041s-1.616,2.961-1.652,3.5,10.269,8.812,10.413,9.136-4.417,16.5-4.524,16.683-1.724,0-2.048.108-1.185,4.623-1.185,5.056,7.4.325,7.756-.072,3.268-10.328,3.34-10.473a5.011,5.011,0,0,1,2.443-.722c.5.181-1.688,5.633-1.185,5.922s6.823.145,7.039.145a29.142,29.142,0,0,0,1.4-4.586c.108-.541.036-.794-.287-.9a14.147,14.147,0,0,0-1.653-.108c-.217-.036,2.3-5.669,2.549-6.717s-.323-1.516-.647-1.516-4.166,1.263-4.417,1.263.9-3.647.932-3.829,11.744-2.563,11.959-2.888.036-4.514-.36-4.875-14.755,1.408-14.755,1.408ZM23.064,8.45c1.425-1.324,3.879-1.372,5.638,1.336a3.688,3.688,0,0,1-3.951,5.669C21.233,14.552,20.694,10.653,23.064,8.45ZM40.336,20.113c-.108.108-11.49,2.131-11.849,2.491s-1.831,6.717-1.4,7.114.609.325.826.253a34.412,34.412,0,0,1,3.843-1.083c.143.108-2.586,7.077-2.371,7.365s2.119.325,2.119.433a7.3,7.3,0,0,1-.538,2.022,33.926,33.926,0,0,1-3.843-.036c0-.143,1.759-5.236,1.509-5.706a.939.939,0,0,0-1.257-.433c-.609.181-4.667.541-4.954.975s-2.8,10.327-3.125,10.508-4.524.289-4.452-.072.251-1.771.5-1.771,2.119.073,2.3-.252,4.992-18.67,4.92-18.885S12.04,14.443,12,14.262a2.219,2.219,0,0,1,.538-.975c.194-.194,10.163,6.1,10.558,6.139s1.149-.433,1.364-.433a2.113,2.113,0,0,1,.683.143c.179.073,14.795-1.226,14.9-1.011a6.793,6.793,0,0,1,.287,1.988Zm.54-17.549c-.143-.181-.8.031-.862.181-.143.361-.179,6.355-.179,6.355-1.184-.578-2.944.036-2.944.759s.287,1.553,1.867,1.625a2.206,2.206,0,0,0,2.334-1.445A21.7,21.7,0,0,0,41.2,6.1s1.939.939,2.083.939A7.251,7.251,0,0,0,44,4.695c0-.469-2.98-1.95-3.124-2.129ZM25.47,9.1a1.973,1.973,0,0,0-2.514,1.011,2.835,2.835,0,0,0-.108,2.78c.358.289,1.078-.036.9-.505a3.426,3.426,0,0,1,.072-1.7c.108-.505,1.221-.939,1.652-.975s.323-.47,0-.614ZM22.813,26.36a15.99,15.99,0,0,0-.647,3.033c0,.252.647,0,.647,0a24.656,24.656,0,0,0,.826-2.852C23.567,26.36,22.9,26.2,22.813,26.36Z" transform="translate(-6)" fill="#ff847c"/>
</svg>
