<svg xmlns="http://www.w3.org/2000/svg" width="36" height="36" viewBox="0 0 36 36">
  <g id="Group_45" data-name="Group 45" transform="translate(-46 -573)">
    <rect id="Rectangle_55" data-name="Rectangle 55" width="36" height="36" rx="13" transform="translate(46 573)" fill="#f4d5bd"/>
    <g id="user" transform="translate(55.441 579.163)">
      <path id="Path_24" data-name="Path 24" d="M92.486,10.908a5.277,5.277,0,0,0,3.857-1.6,5.277,5.277,0,0,0,1.6-3.856,5.278,5.278,0,0,0-1.6-3.856,5.453,5.453,0,0,0-7.713,0,5.278,5.278,0,0,0-1.6,3.856,5.277,5.277,0,0,0,1.6,3.857A5.279,5.279,0,0,0,92.486,10.908Zm0,0" transform="translate(-83.182)" fill="#292529"/>
      <path id="Path_25" data-name="Path 25" d="M18.847,253.791a13.473,13.473,0,0,0-.183-1.431,11.274,11.274,0,0,0-.352-1.439,7.106,7.106,0,0,0-.591-1.342,5.063,5.063,0,0,0-.892-1.162,3.932,3.932,0,0,0-1.281-.8,4.428,4.428,0,0,0-1.635-.3,1.66,1.66,0,0,0-.886.376c-.266.173-.577.374-.923.6a5.293,5.293,0,0,1-1.195.526,4.64,4.64,0,0,1-2.923,0,5.28,5.28,0,0,1-1.194-.526c-.344-.22-.655-.42-.924-.6a1.658,1.658,0,0,0-.886-.376,4.422,4.422,0,0,0-1.635.3,3.929,3.929,0,0,0-1.281.8,5.064,5.064,0,0,0-.891,1.162,7.12,7.12,0,0,0-.591,1.342,11.3,11.3,0,0,0-.352,1.438,13.425,13.425,0,0,0-.183,1.431c-.03.433-.045.883-.045,1.337a3.76,3.76,0,0,0,1.117,2.845,4.02,4.02,0,0,0,2.878,1.05H14.9a4.019,4.019,0,0,0,2.878-1.05,3.758,3.758,0,0,0,1.117-2.845C18.893,254.672,18.877,254.222,18.847,253.791Zm0,0" transform="translate(0 -236.378)" fill="#292529"/>
    </g>
  </g>
</svg>
