<svg xmlns="http://www.w3.org/2000/svg" width="347.631" height="685.115" viewBox="0 0 347.631 685.115">
  <g id="Group_44" data-name="Group 44" transform="translate(-27.432 -3.396)">
    <path id="Shape" d="M29.195,57.466C45.511,57.6,57.33,45,57.205,29.344S43.128-1.046,28.744.775-1.577,11.764.733,28.893,12.878,57.336,29.195,57.466Z" transform="matrix(0.777, 0.629, -0.629, 0.777, 63.202, 514.359)" fill="#e0436b"/>
    <path id="Shape-2" data-name="Shape" d="M9.072,18.585c5.106.283,8.831-3.755,9.3-9.379S14.3-.872,9.184-.062.294,3.97-.121,9.318,3.966,18.3,9.072,18.585Z" transform="translate(129.422 582.541) rotate(155.997)" fill="#e0436b"/>
    <path id="Shape-3" data-name="Shape" d="M19.173,37.739A17.938,17.938,0,0,0,37.568,19.272C37.486,8.991,28.323-.687,18.877.509S-1.035,7.725.481,18.976,8.457,37.653,19.173,37.739Z" transform="matrix(0.777, 0.629, -0.629, 0.777, 64.626, 98.19)" fill="#7252a4"/>
    <path id="Shape-4" data-name="Shape" d="M8.715,17.154A8.154,8.154,0,0,0,17.076,8.76c-.037-4.673-4.2-9.072-8.5-8.529S-.471,3.511.219,8.625,3.844,17.115,8.715,17.154Z" transform="matrix(0.777, 0.629, -0.629, 0.777, 106.03, 124.7)" fill="#7252a4"/>
    <path id="Shape-5" data-name="Shape" d="M41.277,73.356c15.109.117,24.088-21.966,26.064-39.8S53.264-.7,33.8.972.635,15.185.782,33.037,26.168,73.238,41.277,73.356Z" transform="matrix(0.777, 0.629, -0.629, 0.777, 233.068, 589.019)" fill="#7252a4"/>
    <path id="Shape-6" data-name="Shape" d="M9.57,18.856c5.127.354,8.808-3.615,9.2-9.209S14.54-.446,9.422.289.558,4.179.217,9.5,4.443,18.5,9.57,18.856Z" transform="matrix(0.777, 0.629, -0.629, 0.777, 113.013, 496.105)" fill="#f0c933"/>
    <path id="Shape-7" data-name="Shape" d="M4.786,9.429c2.563.177,4.4-1.808,4.6-4.6A4.269,4.269,0,0,0,4.712.144C2.155.51.279,2.09.109,4.751S2.221,9.252,4.786,9.429Z" transform="matrix(0.777, 0.629, -0.629, 0.777, 125.049, 483.153)" fill="#f0c933"/>
    <path id="Shape-8" data-name="Shape" d="M29.143,57.424C44.757,58.5,55.966,46.413,57.175,29.378S44.28-1.359,28.693.881,1.7,12.726.662,28.926,13.53,56.346,29.143,57.424Z" transform="matrix(0.777, 0.629, -0.629, 0.777, 248.011, 307.601)" fill="#453264"/>
    <path id="Shape-9" data-name="Shape" d="M9.142,18.374c5.155.277,8.919-3.72,9.4-9.284A8.26,8.26,0,0,0,9.265-.073C4.1.732.285,3.921-.135,9.211S3.987,18.1,9.142,18.374Z" transform="matrix(-0.454, 0.891, -0.891, -0.454, 248.548, 396.948)" fill="#453264"/>
    <path id="Path_1" data-name="Path 1" d="M0,0S-18.439,86.754,21.881,123.757,218.453,266.612,210.628,349.24,16.294,480.042,21.881,552.213s308.6,119.834,308.6,119.834" transform="translate(44.5 3.5)" fill="none" stroke="#2a363b" stroke-width="1"/>
  </g>
</svg>
